<svg width="48" height="48" viewBox="0 0 48 48" fill="none"
  xmlns="http://www.w3.org/2000/svg">
  <circle cx="24" cy="24" r="24" fill="#C4C4C4"/>
  <line x1="24.5" x2="24.5" y2="48" stroke="black"/>
  <line y1="23.5" x2="48" y2="23.5" stroke="black"/>
  <path d="M15.1484 11.2246L12.3242 19H11.1699L14.4219 10.4688H15.166L15.1484 11.2246ZM17.5156 19L14.6855 11.2246L14.668 10.4688H15.4121L18.6758 19H17.5156ZM17.3691 15.8418V16.7676H12.5762V15.8418H17.3691Z" fill="black"/>
  <path d="M34.1484 11.2246L31.3242 19H30.1699L33.4219 10.4688H34.166L34.1484 11.2246ZM36.5156 19L33.6855 11.2246L33.668 10.4688H34.4121L37.6758 19H36.5156ZM36.3691 15.8418V16.7676H31.5762V15.8418H36.3691Z" fill="black"/>
  <path d="M18.5586 32.4648V33.0039C18.5586 33.6445 18.4785 34.2188 18.3184 34.7266C18.1582 35.2344 17.9277 35.666 17.627 36.0215C17.3262 36.377 16.9648 36.6484 16.543 36.8359C16.125 37.0234 15.6562 37.1172 15.1367 37.1172C14.6328 37.1172 14.1699 37.0234 13.748 36.8359C13.3301 36.6484 12.9668 36.377 12.6582 36.0215C12.3535 35.666 12.1172 35.2344 11.9492 34.7266C11.7812 34.2188 11.6973 33.6445 11.6973 33.0039V32.4648C11.6973 31.8242 11.7793 31.252 11.9434 30.748C12.1113 30.2402 12.3477 29.8086 12.6523 29.4531C12.957 29.0938 13.3184 28.8203 13.7363 28.6328C14.1582 28.4453 14.6211 28.3516 15.125 28.3516C15.6445 28.3516 16.1133 28.4453 16.5312 28.6328C16.9531 28.8203 17.3145 29.0938 17.6152 29.4531C17.9199 29.8086 18.1523 30.2402 18.3125 30.748C18.4766 31.252 18.5586 31.8242 18.5586 32.4648ZM17.4395 33.0039V32.4531C17.4395 31.9453 17.3867 31.4961 17.2812 31.1055C17.1797 30.7148 17.0293 30.3867 16.8301 30.1211C16.6309 29.8555 16.3867 29.6543 16.0977 29.5176C15.8125 29.3809 15.4883 29.3125 15.125 29.3125C14.7734 29.3125 14.4551 29.3809 14.1699 29.5176C13.8887 29.6543 13.6465 29.8555 13.4434 30.1211C13.2441 30.3867 13.0898 30.7148 12.9805 31.1055C12.8711 31.4961 12.8164 31.9453 12.8164 32.4531V33.0039C12.8164 33.5156 12.8711 33.9688 12.9805 34.3633C13.0898 34.7539 13.2461 35.084 13.4492 35.3535C13.6562 35.6191 13.9004 35.8203 14.1816 35.957C14.4668 36.0938 14.7852 36.1621 15.1367 36.1621C15.5039 36.1621 15.8301 36.0938 16.1152 35.957C16.4004 35.8203 16.6406 35.6191 16.8359 35.3535C17.0352 35.084 17.1855 34.7539 17.2871 34.3633C17.3887 33.9688 17.4395 33.5156 17.4395 33.0039Z" fill="black"/>
</svg>
